<?xml version="1.0" standalone="no"?>
<!DOCTYPE svg PUBLIC "-//W3C//DTD SVG 20010904//EN"
 "http://www.w3.org/TR/2001/REC-SVG-20010904/DTD/svg10.dtd">
<svg version="1.0" xmlns="http://www.w3.org/2000/svg"
 width="512.000000pt" height="512.000000pt" viewBox="0 0 512.000000 512.000000"
 preserveAspectRatio="xMidYMid meet">
<metadata>
Created by potrace 1.14, written by Peter Selinger 2001-2017
</metadata>
<g transform="translate(0.000000,512.000000) scale(0.100000,-0.100000)"
fill="#000000" stroke="none">
<path d="M2460 3884 c0 -7 -16 -11 -39 -10 -22 0 -37 -2 -35 -5 2 -4 -3 -9
-11 -13 -8 -3 -15 0 -15 6 0 7 -5 6 -15 -2 -8 -7 -26 -10 -40 -8 -14 3 -28 1
-32 -5 -4 -6 -1 -7 7 -2 8 5 11 4 6 -3 -3 -6 -15 -9 -26 -7 -10 2 -24 -3 -31
-11 -10 -12 -14 -12 -20 -2 -6 10 -13 8 -28 -9 -13 -13 -29 -20 -41 -18 -12 2
-23 -2 -27 -11 -4 -11 -8 -12 -19 -3 -12 10 -13 8 -7 -6 5 -14 3 -17 -10 -12
-11 4 -17 1 -17 -8 0 -13 -18 -20 -42 -16 -4 0 -10 -8 -13 -19 -4 -11 -10 -20
-15 -20 -5 0 -7 8 -4 18 4 9 -3 4 -15 -13 -11 -16 -21 -25 -21 -20 0 6 -10 -1
-21 -15 -11 -14 -17 -18 -13 -10 4 8 -4 4 -19 -10 -15 -14 -27 -32 -27 -40 0
-13 -1 -13 -10 0 -8 13 -10 12 -10 -2 0 -10 -5 -18 -11 -18 -5 0 -8 -4 -4 -9
3 -6 -3 -8 -14 -6 -15 3 -18 0 -14 -12 4 -11 2 -14 -5 -9 -7 4 -13 2 -13 -3
-1 -6 -2 -17 -3 -23 -1 -7 -10 -11 -21 -10 -11 2 -17 1 -13 -4 4 -4 0 -13 -10
-21 -11 -10 -12 -12 -2 -8 8 4 6 0 -4 -9 -10 -8 -24 -13 -30 -9 -6 3 -6 0 1
-7 10 -11 8 -18 -10 -34 -12 -12 -28 -33 -36 -48 -8 -15 -18 -25 -23 -22 -5 3
-8 2 -7 -3 4 -21 -2 -34 -13 -27 -6 4 -8 3 -4 -4 3 -6 0 -16 -7 -24 -8 -7 -13
-23 -12 -35 1 -18 -1 -20 -12 -11 -8 6 -13 7 -12 2 5 -26 -2 -45 -13 -38 -7 4
-10 3 -5 -1 4 -5 0 -19 -9 -33 -9 -13 -11 -21 -5 -18 7 5 9 1 5 -8 -3 -9 -10
-16 -16 -16 -5 0 -7 -4 -3 -9 3 -5 1 -12 -5 -16 -15 -9 -12 -28 3 -19 6 4 3
-3 -8 -15 -11 -13 -19 -32 -17 -43 2 -11 -1 -18 -6 -15 -5 4 -8 -7 -7 -23 1
-17 -3 -30 -8 -30 -6 0 -7 -3 -4 -7 4 -3 1 -13 -6 -21 -10 -13 -9 -14 2 -8 10
7 11 3 5 -15 -4 -13 -8 -33 -9 -45 -1 -11 -4 -24 -7 -30 -2 -5 -5 -33 -6 -62
0 -28 -4 -57 -7 -62 -3 -6 -3 -10 2 -10 4 0 7 -27 7 -60 -1 -39 2 -60 10 -60
7 0 6 -4 -3 -9 -9 -6 -10 -11 -2 -15 8 -5 8 -13 0 -28 -8 -15 -8 -19 0 -14 7
5 12 -2 13 -16 2 -37 3 -42 11 -55 5 -7 5 -13 1 -13 -3 0 1 -11 9 -24 12 -17
13 -26 4 -35 -8 -8 -8 -11 1 -11 7 0 12 -13 12 -30 0 -16 5 -30 11 -30 5 0 7
-4 4 -10 -3 -5 -1 -10 4 -10 6 0 11 -13 11 -30 0 -20 5 -30 15 -30 8 0 15 -5
15 -11 0 -5 -4 -8 -8 -5 -5 3 -9 -1 -9 -9 0 -8 4 -12 9 -9 4 3 8 0 8 -6 0 -6
5 -8 12 -4 6 4 9 3 5 -2 -6 -11 27 -87 35 -79 3 3 8 -1 12 -10 4 -11 2 -14 -7
-10 -6 4 -3 -1 7 -9 11 -9 16 -16 10 -16 -5 0 -1 -5 9 -11 9 -5 17 -17 17 -25
0 -10 5 -12 13 -8 9 6 9 4 -1 -8 -10 -13 -10 -18 -1 -24 8 -4 9 -3 5 4 -4 7
-2 12 3 12 6 0 11 -7 11 -15 0 -8 7 -15 15 -15 8 0 14 -3 13 -7 -4 -15 14 -53
22 -48 4 3 11 -2 14 -11 3 -8 11 -12 16 -9 6 4 10 3 9 -2 -3 -17 1 -36 7 -31
3 4 18 -7 33 -23 16 -16 32 -29 37 -29 4 0 17 -10 29 -23 11 -13 16 -16 10 -7
-6 10 -2 9 12 -4 13 -10 20 -24 16 -30 -3 -6 -3 -8 2 -4 10 9 47 -10 40 -22
-3 -4 4 -6 15 -3 12 3 20 0 20 -6 0 -7 5 -9 10 -6 6 3 10 -1 10 -9 0 -10 7
-13 20 -11 11 2 18 0 15 -6 -4 -5 0 -9 8 -9 8 0 20 -7 27 -15 7 -9 19 -14 27
-11 7 3 13 2 13 -2 0 -4 9 -13 21 -20 12 -8 18 -9 14 -3 -3 6 -1 11 4 11 6 0
11 -5 11 -11 0 -5 4 -8 9 -4 5 3 12 1 16 -5 3 -5 17 -10 31 -10 13 0 24 -4 24
-10 0 -5 7 -7 15 -4 9 4 15 1 15 -7 0 -10 3 -10 12 -1 9 9 16 8 30 -5 14 -13
18 -13 18 -2 1 12 3 11 13 -1 14 -18 47 -22 47 -6 0 7 3 6 8 -2 11 -17 132
-27 280 -23 24 0 41 5 38 9 -3 5 1 9 9 9 8 0 12 -4 9 -9 -3 -4 0 -8 5 -8 6 0
11 4 11 9 0 5 11 8 25 6 14 -1 28 2 32 8 4 6 1 7 -7 2 -9 -6 -11 -4 -5 5 6 10
11 9 21 -4 6 -9 14 -12 15 -7 2 6 19 12 37 14 17 2 35 6 38 10 3 3 13 3 22 0
11 -5 13 -3 7 7 -6 10 -2 12 19 8 18 -4 30 0 36 11 7 13 9 13 10 2 0 -11 3
-11 13 3 7 9 19 16 27 14 8 -2 14 3 12 10 -1 8 2 11 8 7 6 -4 18 -1 27 7 14
11 16 11 9 -2 -4 -8 -1 -7 7 3 8 10 24 19 35 20 11 0 19 4 16 8 -2 4 8 10 21
13 14 4 23 11 20 16 -3 6 1 7 9 4 9 -3 16 -1 16 5 0 6 7 11 16 11 9 0 12 5 8
12 -5 7 -2 9 8 6 8 -4 20 2 27 13 6 11 23 24 37 30 18 6 24 14 20 25 -3 8 -2
13 3 9 13 -7 42 5 36 15 -3 5 4 11 15 15 11 4 18 11 15 16 -4 5 1 12 9 15 9 3
13 11 9 17 -4 6 0 8 10 4 15 -6 21 3 15 19 -2 3 8 12 22 19 15 9 19 15 10 15
-10 0 -8 5 7 13 21 12 23 15 23 38 0 5 4 8 9 5 5 -4 7 4 4 16 -3 16 -2 19 4
10 7 -8 14 10 25 59 13 61 13 73 1 85 -12 11 -12 14 -1 14 10 0 9 3 -2 10 -13
9 -13 10 0 10 9 1 5 6 -10 15 -14 8 -19 14 -12 15 8 0 6 7 -7 22 -11 11 -18
25 -15 29 3 5 -2 6 -10 3 -9 -3 -16 -1 -16 4 0 6 -13 19 -29 28 -17 10 -27 22
-24 28 4 6 0 5 -9 -2 -10 -8 -17 -9 -20 -3 -1 5 -19 13 -38 16 -19 3 -41 13
-47 22 -10 13 -13 14 -13 2 0 -12 -2 -12 -10 1 -5 8 -19 15 -32 15 -13 0 -29
4 -37 9 -10 6 -12 6 -7 -2 4 -7 2 -12 -3 -12 -6 0 -11 5 -11 11 0 8 -5 8 -15
-1 -12 -10 -15 -10 -15 0 0 9 -3 10 -13 1 -8 -6 -23 -9 -35 -6 -12 2 -24 -1
-27 -6 -4 -5 -11 -7 -16 -4 -5 4 -9 1 -9 -5 0 -6 -4 -9 -10 -5 -5 3 -18 -2
-29 -12 -33 -30 -50 -43 -57 -43 -3 0 -15 -11 -26 -25 -11 -14 -24 -22 -30
-19 -7 4 -8 2 -4 -4 4 -7 1 -12 -8 -12 -8 0 -18 -5 -22 -12 -5 -7 -3 -8 6 -3
9 5 11 4 6 -3 -4 -7 -16 -12 -26 -12 -10 0 -24 -8 -29 -17 -6 -10 -11 -14 -11
-10 0 5 -15 0 -34 -11 -26 -15 -37 -17 -46 -9 -10 9 -11 9 -6 0 5 -9 1 -13
-11 -13 -11 0 -25 -6 -32 -12 -11 -10 -13 -10 -7 0 4 6 2 12 -3 12 -6 0 -11
-4 -11 -9 0 -5 -11 -8 -25 -6 -14 1 -25 -1 -25 -4 0 -3 -16 -6 -35 -6 -19 0
-35 2 -35 5 0 4 -13 5 -30 2 -21 -3 -30 0 -30 9 0 11 -2 11 -10 -1 -6 -10 -10
-11 -10 -2 0 6 -5 12 -11 12 -5 0 -7 -5 -4 -11 8 -12 -29 7 -59 31 -12 9 -16
10 -12 3 10 -18 -2 -16 -21 2 -8 8 -19 13 -24 9 -5 -3 -12 2 -15 10 -3 9 -12
16 -20 16 -8 0 -14 5 -14 11 0 5 -4 7 -10 4 -5 -3 -10 2 -10 12 0 15 -2 16
-10 3 -8 -12 -10 -12 -10 -1 0 8 -17 29 -37 47 -20 18 -34 36 -31 39 4 4 -1
15 -10 25 -34 37 -41 48 -35 54 4 3 0 6 -7 6 -7 0 -11 3 -7 6 3 3 -3 23 -14
42 -10 20 -19 48 -19 63 0 14 -3 29 -7 33 -11 11 -10 66 1 66 8 0 8 3 0 8 -14
9 -14 43 0 61 8 11 8 13 -1 7 -7 -4 -13 -3 -13 3 0 5 5 13 10 16 7 5 8 11 1
19 -6 7 -6 17 -1 26 6 8 10 29 10 47 0 17 5 33 10 35 6 2 12 13 13 26 0 12 5
22 10 22 4 0 6 4 2 9 -3 5 2 16 11 25 8 9 16 25 17 35 1 15 5 17 13 10 9 -7
12 -5 10 8 -2 10 4 25 14 33 9 8 19 23 23 33 4 10 21 24 38 31 21 9 27 15 18
19 -10 4 -9 6 4 6 9 1 17 6 17 12 0 5 5 7 10 4 6 -3 10 -1 10 6 0 7 3 10 6 6
8 -7 33 16 28 25 -3 4 5 5 16 3 11 -2 20 1 20 7 0 6 3 8 7 5 3 -4 15 1 26 10
15 13 18 14 12 3 -8 -13 -6 -13 8 -2 9 8 21 11 27 7 5 -3 10 -1 10 4 0 6 5 11
11 11 5 0 7 -5 3 -12 -5 -7 -3 -8 7 -2 8 5 21 9 29 9 8 0 20 3 25 6 9 5 25 5
43 -1 8 -3 54 -7 100 -9 19 0 31 -5 27 -11 -9 -14 8 -13 23 2 9 9 12 9 12 -1
0 -7 4 -10 9 -7 5 3 12 -1 15 -10 3 -8 10 -13 15 -9 5 3 12 1 16 -5 4 -6 11
-8 16 -5 5 4 9 -1 9 -10 0 -9 5 -13 10 -10 6 3 10 1 10 -6 0 -8 4 -8 15 1 13
11 14 10 9 -5 -5 -11 -3 -16 2 -12 6 3 18 -5 28 -18 10 -14 24 -22 30 -18 6 3
8 3 4 -2 -9 -9 56 -76 77 -79 8 -1 24 -12 36 -25 12 -12 27 -20 35 -17 8 3 14
2 14 -2 0 -5 41 -9 90 -9 61 -1 90 3 90 11 0 7 3 7 8 1 11 -15 32 -17 29 -3
-1 8 9 12 26 12 15 -1 27 3 27 8 0 6 7 8 15 4 8 -3 14 0 12 7 -1 7 8 12 20 11
14 -1 20 3 16 12 -3 8 1 14 11 14 9 0 16 5 16 11 0 5 5 7 10 4 6 -3 10 1 10 9
0 9 5 16 11 16 5 0 7 -5 3 -12 -4 -7 -3 -8 4 -4 6 4 9 13 5 21 -3 8 0 15 7 15
7 0 10 7 6 15 -4 10 1 15 17 16 12 0 16 3 9 6 -10 4 -10 8 -1 20 10 12 10 16
-2 24 -12 7 -7 13 12 11 8 -1 4 36 -4 44 -11 11 -8 26 3 19 5 -3 3 7 -5 22 -8
15 -15 34 -15 41 0 6 -4 12 -10 12 -5 0 -10 5 -10 11 0 5 5 7 11 4 6 -4 5 2
-2 13 -7 12 -17 18 -22 15 -5 -3 -7 0 -5 8 3 8 -7 25 -21 38 -14 13 -20 20
-13 17 22 -12 13 6 -15 30 -16 13 -24 24 -20 24 4 0 2 6 -5 14 -7 8 -16 12
-20 9 -5 -2 -8 3 -8 11 0 9 -7 16 -16 16 -8 0 -13 3 -11 8 3 4 -1 13 -9 20 -8
7 -14 10 -14 6 0 -4 -16 10 -36 32 -20 21 -33 32 -28 24 7 -13 5 -13 -9 -1 -9
7 -14 17 -11 22 3 5 -2 6 -10 3 -11 -4 -16 0 -16 12 0 16 -2 17 -10 4 -8 -13
-10 -12 -10 3 0 10 -4 15 -10 12 -5 -3 -10 -1 -10 5 0 6 -4 8 -10 5 -5 -3 -10
-1 -10 4 0 10 -61 41 -77 40 -3 -1 -11 7 -16 16 -8 14 -11 15 -18 4 -7 -11 -9
-10 -9 4 0 10 -8 17 -20 17 -11 0 -20 4 -20 10 0 5 -7 6 -17 3 -10 -4 -14 -2
-9 5 4 7 -1 10 -14 7 -11 -2 -20 0 -20 6 0 5 -9 9 -21 9 -11 0 -18 4 -15 9 3
5 0 9 -7 8 -45 -1 -87 4 -83 12 3 4 -6 6 -21 3 -15 -3 -23 -1 -20 4 3 6 -4 11
-16 11 -17 2 -19 0 -7 -7 9 -6 10 -10 3 -10 -6 0 -14 4 -18 9 -3 6 -15 8 -27
6 -12 -3 -26 1 -30 8 -6 9 -8 8 -8 -3 0 -13 -1 -13 -10 0 -8 12 -10 12 -10 1
0 -11 -3 -11 -15 -1 -12 10 -15 10 -15 -1 0 -10 -3 -10 -12 -1 -7 7 -17 8 -29
2 -10 -6 -20 -6 -23 -2 -4 8 -50 9 -66 2 -16 -7 -46 -4 -52 5 -5 6 -8 4 -8 -5
0 -13 -1 -13 -10 0 -5 8 -10 10 -10 4z"/>
<path d="M3066 3007 c3 -10 9 -15 12 -12 3 3 0 11 -7 18 -10 9 -11 8 -5 -6z"/>
</g>
</svg>
