<?xml version="1.0" standalone="no"?>
<!DOCTYPE svg PUBLIC "-//W3C//DTD SVG 20010904//EN"
 "http://www.w3.org/TR/2001/REC-SVG-20010904/DTD/svg10.dtd">
<svg version="1.0" xmlns="http://www.w3.org/2000/svg"
 width="327.000000pt" height="327.000000pt" viewBox="0 0 327.000000 327.000000"
 preserveAspectRatio="xMidYMid meet">
<metadata>
Created by potrace 1.14, written by Peter Selinger 2001-2017
</metadata>
<g transform="translate(0.000000,327.000000) scale(0.100000,-0.100000)"
fill="#000000" stroke="none">
<path d="M284 3249 c-67 -25 -124 -76 -160 -141 l-29 -53 -3 -1406 -2 -1406
21 -51 c30 -72 80 -126 147 -159 l57 -28 1320 0 1320 0 46 21 c66 31 116 79
147 143 l27 56 0 1415 0 1415 -23 43 c-35 65 -101 127 -163 150 -54 21 -64 21
-1354 21 -1267 0 -1301 0 -1351 -20z"/>
</g>
</svg>
